<svg xmlns="http://www.w3.org/2000/svg" width="30" height="42" viewBox="0 0 30 42"><g fill="none" fill-rule="evenodd" transform="scale(1.3125)"><path d="M22 11c0 1.42-.226 2.585-.677 3.496l-7.465 15.117c-.218.43-.543.77-.974 1.016-.43.246-.892.37-1.384.37-.492 0-.954-.124-1.384-.37-.43-.248-.75-.587-.954-1.017L1.677 14.496C1.227 13.586 1 12.42 1 11c0-2.76 1.025-5.117 3.076-7.07C6.126 1.977 8.602 1 11.5 1c2.898 0 5.373.977 7.424 2.93C20.974 5.883 22 8.24 22 11z" stroke="#ffffff" stroke-width=".6" fill="#32556f" fill-rule="nonzero"/><path transform="translate(11.5 10)  scale(0.006 -0.006) translate(-832, -768)" d="M1566 419l-167 -33l186 -107q23 -13 29.5 -38.5t-6.5 -48.5q-14 -23 -39 -29.5t-48 6.5l-186 106l55 -160q13 -38 -12 -63.5t-60.5 -20.5t-48.5 42l-102 300l-271 156v-313l208 -238q16 -18 17 -39t-11 -36.5t-28.5 -25t-37 -5.5t-36.5 22l-112 128v-214q0 -26 -19 -45 t-45 -19t-45 19t-19 45v214l-112 -128q-16 -18 -36.5 -22t-37 5.5t-28.5 25t-11 36.5t17 39l208 238v313l-271 -156l-102 -300q-13 -37 -48.5 -42t-60.5 20.5t-12 63.5l55 160l-186 -106q-23 -13 -48 -6.5t-39 29.5q-13 23 -6.5 48.5t29.5 38.5l186 107l-167 33 q-29 6 -42 29t-8.5 46.5t25.5 40t50 10.5l310 -62l271 157l-271 157l-310 -62q-4 -1 -13 -1q-27 0 -44 18t-19 40t11 43t40 26l167 33l-186 107q-23 13 -29.5 38.5t6.5 48.5t39 30t48 -7l186 -106l-55 160q-13 38 12 63.5t60.5 20.5t48.5 -42l102 -300l271 -156v313 l-208 238q-16 18 -17 39t11 36.5t28.5 25t37 5.5t36.5 -22l112 -128v214q0 26 19 45t45 19t45 -19t19 -45v-214l112 128q16 18 36.5 22t37 -5.5t28.5 -25t11 -36.5t-17 -39l-208 -238v-313l271 156l102 300q13 37 48.5 42t60.5 -20.5t12 -63.5l-55 -160l186 106 q23 13 48 6.5t39 -29.5q13 -23 6.5 -48.5t-29.5 -38.5l-186 -107l167 -33q27 -5 40 -26t11 -43t-19 -40t-44 -18q-9 0 -13 1l-310 62l-271 -157l271 -157l310 62q29 6 50 -10.5t25.5 -40t-8.5 -46.5t-42 -29z" fill="#ffffff"/></g></svg>